<mxfile host="app.diagrams.net" agent="Mozilla/5.0 (Windows NT 10.0; Win64; x64) AppleWebKit/537.36 (KHTML, like Gecko) Chrome/134.0.0.0 Safari/537.36 Edg/134.0.0.0" version="27.0.3">
  <diagram id="wFE0QG_FPsp0jaGvCLVb" name="Page-1">
    <mxGraphModel dx="1177" dy="606" grid="1" gridSize="10" guides="1" tooltips="1" connect="1" arrows="1" fold="1" page="1" pageScale="1" pageWidth="850" pageHeight="1100" math="0" shadow="0">
      <root>
        <mxCell id="0" />
        <mxCell id="1" parent="0" />
        <mxCell id="_5mSTuPxr-ZiKRkBDSY7-1" value="" style="swimlane;fontStyle=2;childLayout=stackLayout;horizontal=1;startSize=28;horizontalStack=1;resizeParent=1;resizeParentMax=0;resizeLast=0;collapsible=0;marginBottom=0;swimlaneFillColor=none;fontFamily=Permanent Marker;fontSize=16;points=[];verticalAlign=top;stackBorder=0;resizable=1;strokeWidth=2;sketch=1;disableMultiStroke=1;" parent="1" vertex="1">
          <mxGeometry x="50" y="20" width="540" height="560" as="geometry" />
        </mxCell>
        <object label="TO DO" status="New" id="_5mSTuPxr-ZiKRkBDSY7-2">
          <mxCell style="swimlane;strokeWidth=2;fontFamily=Permanent Marker;html=0;startSize=1;verticalAlign=bottom;spacingBottom=5;points=[];childLayout=stackLayout;stackBorder=20;stackSpacing=20;resizeLast=0;resizeParent=1;horizontalStack=0;collapsible=0;sketch=1;strokeColor=none;fillStyle=solid;fillColor=#A0522D;" parent="_5mSTuPxr-ZiKRkBDSY7-1" vertex="1">
            <mxGeometry y="28" width="180" height="532" as="geometry" />
          </mxCell>
        </object>
        <object label="Data Model/&lt;span style=&quot;background-color: transparent; color: light-dark(rgb(0, 0, 0), rgb(255, 255, 255));&quot;&gt;ERD&lt;/span&gt;&lt;div&gt;Schema/Normalisation&lt;/div&gt;" placeholders="1" id="_5mSTuPxr-ZiKRkBDSY7-5">
          <mxCell style="whiteSpace=wrap;html=1;strokeWidth=2;fillColor=swimlane;fontStyle=1;spacingTop=0;rounded=1;arcSize=9;points=[];sketch=1;fontFamily=Permanent Marker;hachureGap=8;fillWeight=1;" parent="_5mSTuPxr-ZiKRkBDSY7-2" vertex="1">
            <mxGeometry x="20" y="21" width="140" height="80" as="geometry" />
          </mxCell>
        </object>
        <object label="&lt;div&gt;Transformation steps to clean the raw data&lt;/div&gt;" placeholders="1" id="_5mSTuPxr-ZiKRkBDSY7-4">
          <mxCell style="whiteSpace=wrap;html=1;strokeWidth=2;fillColor=swimlane;fontStyle=1;spacingTop=0;rounded=1;arcSize=9;points=[];sketch=1;fontFamily=Permanent Marker;hachureGap=8;fillWeight=1;" parent="_5mSTuPxr-ZiKRkBDSY7-2" vertex="1">
            <mxGeometry x="20" y="121" width="140" height="80" as="geometry" />
          </mxCell>
        </object>
        <object label="Set-up SQL database" placeholders="1" id="_5mSTuPxr-ZiKRkBDSY7-8">
          <mxCell style="whiteSpace=wrap;html=1;strokeWidth=2;fillColor=swimlane;fontStyle=1;spacingTop=0;rounded=1;arcSize=9;points=[];sketch=1;fontFamily=Permanent Marker;hachureGap=8;fillWeight=1;" parent="_5mSTuPxr-ZiKRkBDSY7-2" vertex="1">
            <mxGeometry x="20" y="221" width="140" height="80" as="geometry" />
          </mxCell>
        </object>
        <object label="Batch vs&lt;div&gt;Streaming&lt;/div&gt;" placeholders="1" id="_5mSTuPxr-ZiKRkBDSY7-7">
          <mxCell style="whiteSpace=wrap;html=1;strokeWidth=2;fillColor=swimlane;fontStyle=1;spacingTop=0;rounded=1;arcSize=9;points=[];sketch=1;fontFamily=Permanent Marker;hachureGap=8;fillWeight=1;" parent="_5mSTuPxr-ZiKRkBDSY7-2" vertex="1">
            <mxGeometry x="20" y="321" width="140" height="80" as="geometry" />
          </mxCell>
        </object>
        <object label="Testing&lt;div&gt;DevOps Analytics&lt;/div&gt;" placeholders="1" id="_5mSTuPxr-ZiKRkBDSY7-12">
          <mxCell style="whiteSpace=wrap;html=1;strokeWidth=2;fillColor=swimlane;fontStyle=1;spacingTop=0;rounded=1;arcSize=9;points=[];sketch=1;fontFamily=Permanent Marker;hachureGap=8;fillWeight=1;" parent="_5mSTuPxr-ZiKRkBDSY7-2" vertex="1">
            <mxGeometry x="20" y="421" width="140" height="80" as="geometry" />
          </mxCell>
        </object>
        <object label="DOING" status="In progress" id="_5mSTuPxr-ZiKRkBDSY7-6">
          <mxCell style="swimlane;strokeWidth=2;fontFamily=Permanent Marker;html=0;startSize=1;verticalAlign=bottom;spacingBottom=5;points=[];childLayout=stackLayout;stackBorder=20;stackSpacing=20;resizeLast=0;resizeParent=1;horizontalStack=0;collapsible=0;sketch=1;strokeColor=none;fillStyle=solid;fillColor=#006600;" parent="_5mSTuPxr-ZiKRkBDSY7-1" vertex="1">
            <mxGeometry x="180" y="28" width="180" height="532" as="geometry" />
          </mxCell>
        </object>
        <object label="Data Sources&lt;div&gt;CSVs&lt;/div&gt;&lt;div&gt;What other sources?&lt;/div&gt;" placeholders="1" id="_5mSTuPxr-ZiKRkBDSY7-3">
          <mxCell style="whiteSpace=wrap;html=1;strokeWidth=2;fillColor=swimlane;fontStyle=1;spacingTop=0;rounded=1;arcSize=9;points=[];sketch=1;fontFamily=Permanent Marker;hachureGap=8;fillWeight=1;" parent="_5mSTuPxr-ZiKRkBDSY7-6" vertex="1">
            <mxGeometry x="20" y="21" width="140" height="80" as="geometry" />
          </mxCell>
        </object>
        <object label="DONE" status="Completed" id="_5mSTuPxr-ZiKRkBDSY7-9">
          <mxCell style="swimlane;strokeWidth=2;fontFamily=Permanent Marker;html=0;startSize=1;verticalAlign=bottom;spacingBottom=5;points=[];childLayout=stackLayout;stackBorder=20;stackSpacing=20;resizeLast=0;resizeParent=1;horizontalStack=0;collapsible=0;sketch=1;strokeColor=none;fillStyle=solid;fillColor=#1BA1E2;" parent="_5mSTuPxr-ZiKRkBDSY7-1" vertex="1">
            <mxGeometry x="360" y="28" width="180" height="532" as="geometry" />
          </mxCell>
        </object>
        <object label="Pipeline Diagram" placeholders="1" id="_5mSTuPxr-ZiKRkBDSY7-10">
          <mxCell style="whiteSpace=wrap;html=1;strokeWidth=2;fillColor=swimlane;fontStyle=1;spacingTop=0;rounded=1;arcSize=9;points=[];sketch=1;fontFamily=Permanent Marker;hachureGap=8;fillWeight=1;" parent="_5mSTuPxr-ZiKRkBDSY7-9" vertex="1">
            <mxGeometry x="20" y="21" width="140" height="80" as="geometry" />
          </mxCell>
        </object>
        <object label="Identify destination&lt;div&gt;Azure DevOps&lt;/div&gt;" placeholders="1" id="_5mSTuPxr-ZiKRkBDSY7-11">
          <mxCell style="whiteSpace=wrap;html=1;strokeWidth=2;fillColor=swimlane;fontStyle=1;spacingTop=0;rounded=1;arcSize=9;points=[];sketch=1;fontFamily=Permanent Marker;hachureGap=8;fillWeight=1;" parent="_5mSTuPxr-ZiKRkBDSY7-9" vertex="1">
            <mxGeometry x="20" y="121" width="140" height="80" as="geometry" />
          </mxCell>
        </object>
        <object label="Identify transformation tool&lt;div&gt;PyTest&lt;/div&gt;" placeholders="1" id="jNkhE5tgOIvuHwAHAe_3-4">
          <mxCell style="whiteSpace=wrap;html=1;strokeWidth=2;fillColor=swimlane;fontStyle=1;spacingTop=0;rounded=1;arcSize=9;points=[];sketch=1;fontFamily=Permanent Marker;hachureGap=8;fillWeight=1;" vertex="1" parent="_5mSTuPxr-ZiKRkBDSY7-9">
            <mxGeometry x="20" y="221" width="140" height="80" as="geometry" />
          </mxCell>
        </object>
      </root>
    </mxGraphModel>
  </diagram>
</mxfile>
